Coordinates
version=1
nRows=27
nColumns=38
inDegrees=no

Units are S.I. units (second, meters, Newtons, ...)
If the header above contains a line with 'inDegrees', this indicates whether rotational values are in degrees (yes) or radians (no).

endheader
time	pelvis_tilt	pelvis_list	pelvis_rotation	pelvis_tx	pelvis_ty	pelvis_tz	hip_flexion_r	hip_adduction_r	hip_rotation_r	knee_angle_r	ankle_angle_r	subtalar_angle_r	mtp_angle_r	hip_flexion_l	hip_adduction_l	hip_rotation_l	knee_angle_l	ankle_angle_l	subtalar_angle_l	mtp_angle_l	lumbar_extension	lumbar_bending	lumbar_rotation	arm_flex_r	arm_add_r	arm_rot_r	elbow_flex_r	pro_sup_r	wrist_flex_r	wrist_dev_r	arm_flex_l	arm_add_l	arm_rot_l	elbow_flex_l	pro_sup_l	wrist_flex_l	wrist_dev_l
0	3.10693	1.50496	-1.69415	0.769499	-0.531436	0.94062	-0.331146	0.0138756	-0.160276	0.0307757	0.149173	0	0	0.247756	-0.00646495	-0.265043	0.0341218	0.0187313	0	0	-0.147404	-0.0181147	0.251063	0.0615912	-0.330254	0.832932	0.385215	0.819438	0	0	0.143047	-0.140281	0.22218	0.175082	1.5708	0	0
0.01	3.01955	1.51257	-1.60635	0.769591	-0.521768	0.937916	-0.337508	0.019555	-0.156904	0.0260498	0.151302	0	0	0.242494	-0.00556635	-0.267307	0	0.0106005	0	0	-0.137414	-0.011572	0.247926	0.0613452	-0.329518	0.831864	0.383162	0.82089	0	0	0.137604	-0.140099	0.223608	0.175701	1.5708	0	0
0.02	2.83584	1.53612	-1.41637	0.77031	-0.51224	0.934221	-0.321232	0.033152	-0.149484	0.0290982	0.149457	0	0	0.284458	-0.0121123	-0.27151	0	0.0139583	0	0	-0.101664	-0.0164072	0.247305	0.0581911	-0.289144	0.760574	0.317357	0.896153	0	0	0.129548	-0.152982	0.307747	0.184261	1.50981	0	0
0.03	2.6176	1.51539	-1.19591	0.769657	-0.502854	0.933841	-0.361113	0.0479114	-0.129862	0.0232575	0.274439	0	0	0.270057	-0.0256999	-0.284455	0	0.0161765	0	0	-0.127567	0.0105985	0.24238	0.0557698	-0.316936	0.767465	0.361314	0.900305	0	0	0.123658	-0.146737	0.2961	0.1976	1.50746	0	0
0.04	2.77802	1.51989	-1.36136	0.770503	-0.492459	0.931262	-0.354294	0.0320604	-0.141147	0.0581108	0.299385	0	0	0.270654	-0.0158459	-0.307915	0	0.0102376	0	0	-0.12267	-0.00182976	0.24435	0.0536958	-0.316179	0.779237	0.364892	0.89654	0	0	0.116825	-0.150813	0.290097	0.204266	1.5107	0	0
0.05	2.95453	1.51443	-1.54255	0.770464	-0.481548	0.930363	-0.362584	0.0170731	-0.172154	0.065959	0.180913	0	0	0.256856	-0.00398963	-0.327555	0	-0.00327134	0	0	-0.125716	-0.011021	0.246946	0.0500981	-0.317575	0.784843	0.366922	0.891802	0	0	0.10844	-0.151178	0.285368	0.208247	1.51468	0	0
0.06	3.01848	1.5088	-1.61113	0.770824	-0.470716	0.92961	-0.372667	0.00772538	-0.176073	0.0810315	0.189578	0	0	0.242253	0.00257955	-0.33351	0	-0.0152694	0	0	-0.128839	-0.0157652	0.249471	0.0475401	-0.317675	0.785991	0.368556	0.887536	0	0	0.102095	-0.151634	0.279052	0.209334	1.51686	0	0
0.07	3.04468	1.50504	-1.6414	0.771022	-0.459832	0.928599	-0.376066	-0.000642878	-0.18512	0.104699	0.200253	0	0	0.228317	0.00759695	-0.334857	0	-0.0259978	0	0	-0.130015	-0.0182938	0.252276	0.044109	-0.318104	0.784089	0.370333	0.884139	0	0	0.0966716	-0.151473	0.271976	0.209927	1.51849	0	0
0.08	2.96862	1.50798	-1.56904	0.771071	-0.448312	0.926482	-0.370139	-0.00296576	-0.194376	0.133822	0.210764	0	0	0.22141	0.00574532	-0.331296	0	-0.03091	0	0	-0.12216	-0.0125452	0.255601	0.0366169	-0.320701	0.780449	0.374306	0.88268	0	0	0.0887741	-0.150493	0.26581	0.209708	1.52155	0	0
0.09	2.71602	1.51558	-1.3258	0.77133	-0.435857	0.923644	-0.35668	-0.00469816	-0.197325	0.179561	0.340898	0	0	0.214497	-0.00348028	-0.323244	0	-0.0365623	0	0	-0.104751	0.00374491	0.262751	0.0262736	-0.325319	0.777689	0.37919	0.883061	0	0	0.0762022	-0.148308	0.259103	0.210641	1.52593	0	0
0.1	3.04504	1.49406	-1.65485	0.770832	-0.425583	0.927346	-0.381855	-0.0328663	-0.234898	0.184165	0.219903	0	0	0.184347	0.01884	-0.34084	0	-0.075138	0	0	-0.132245	-0.0195025	0.260639	0.0303428	-0.320509	0.772041	0.373786	0.882303	0	0	0.0778836	-0.149812	0.248923	0.215251	1.53394	0	0
0.11	-2.98809	1.48388	-1.91016	0.770924	-0.41384	0.926147	-0.372287	-0.0611808	-0.231158	0.238534	0.228961	0	0	0.174673	0.0410747	-0.358638	6.69568e-07	-0.107659	0	0	-0.133158	-0.0453718	0.267433	0.0224149	-0.317653	0.762896	0.375686	0.883311	0	0	0.0735151	-0.153946	0.24082	0.222238	1.54467	0	0
0.12	-2.88385	1.47213	-2.01865	0.770262	-0.402678	0.927044	-0.371845	-0.0941986	-0.256334	0.278572	0.234953	0	0	0.154684	0.0602594	-0.362517	0	-0.136672	0	0	-0.139471	-0.0605151	0.269125	0.0201331	-0.315335	0.754528	0.374085	0.885336	0	0	0.0697556	-0.154441	0.230154	0.225913	1.55354	0	0
0.13	-2.8109	1.46508	-2.08653	0.769247	-0.392225	0.927418	-0.362577	-0.11264	-0.268508	0.324104	0.230302	0	0	0.167207	0.0653008	-0.363247	0.0419191	-0.123902	0	0	-0.143171	-0.0722332	0.265108	0.0176897	-0.312439	0.746932	0.372898	0.889545	0	0	0.0698229	-0.154745	0.218193	0.226053	1.56439	0	0
0.14	-2.72232	1.45576	-2.17136	0.767429	-0.380869	0.928067	-0.352235	-0.137329	-0.277679	0.373043	0.222742	0	0	0.158098	0.0830877	-0.363098	0.0505368	-0.119277	0	0	-0.144593	-0.0854686	0.26189	0.0123348	-0.312137	0.740496	0.373881	0.893404	0	0	0.067196	-0.153108	0.209225	0.224857	1.5708	0	0
0.15	-2.65147	1.45001	-2.24152	0.765362	-0.370608	0.92905	-0.338145	-0.156869	-0.274638	0.422861	0.296426	0	0	0.162694	0.0939805	-0.363442	0.0799201	-0.105197	0	0	-0.145557	-0.0948991	0.26214	0.00916275	-0.314403	0.734265	0.375444	0.896939	0	0	0.0669588	-0.148763	0.202292	0.223479	1.5708	0	0
0.16	-2.60142	1.4435	-2.2804	0.764072	-0.358685	0.929702	-0.317628	-0.177986	-0.286615	0.481361	0.182275	0	0	0.165329	0.102553	-0.363324	0.11404	-0.080294	0	0	-0.143948	-0.104785	0.253816	0.00138193	-0.310166	0.722146	0.375381	0.905807	0	0	0.0645035	-0.150481	0.194357	0.222104	1.5708	0	0
0.17	-2.70804	1.43784	-2.16384	0.761696	-0.347507	0.93276	-0.318258	-0.180783	-0.30329	0.520513	0.136561	0	0	0.146708	0.0984857	-0.354605	0.129055	-0.0675233	0	0	-0.158241	-0.0935526	0.247951	-0.00337267	-0.313812	0.711293	0.376292	0.913336	0	0	0.065502	-0.14443	0.193815	0.218554	1.5708	0	0
0.18	-2.52889	1.4488	-2.33436	0.75983	-0.336856	0.930478	-0.255952	-0.202167	-0.283148	0.607247	0.107883	0	0	0.18338	0.107776	-0.350772	0.175968	-0.0447601	0	0	-0.131121	-0.104735	0.24423	-0.0119744	-0.310982	0.702163	0.376028	0.91696	0	0	0.0617338	-0.14681	0.198353	0.219955	1.5708	0	0
0.19	-2.4943	1.44622	-2.36532	0.757561	-0.325238	0.931271	-0.223066	-0.222658	-0.277147	0.675137	0.0551841	0	0	0.153563	0.127955	-0.344188	0.134357	-0.060578	0	0	-0.12607	-0.106798	0.244668	-0.0201282	-0.313984	0.695646	0.377951	0.918058	0	0	0.0577942	-0.144207	0.202743	0.220581	1.5708	0	0
0.2	-2.59526	1.44286	-2.25789	0.754883	-0.314084	0.934096	-0.208603	-0.232447	-0.286449	0.726674	-0.0157645	0	0	0.121561	0.130732	-0.336327	0.11755	-0.0644206	0	0	-0.136775	-0.0946646	0.24266	-0.0252247	-0.320056	0.68895	0.379308	0.919123	0	0	0.05706	-0.138549	0.210418	0.220236	1.5708	0	0
0.21	-2.45897	1.44938	-2.39412	0.754324	-0.304033	0.932275	-0.137897	-0.242006	-0.237089	0.822514	0.00409752	0	0	0.129623	0.1426	-0.336642	0.119139	-0.0569914	0	0	-0.116332	-0.103944	0.247578	-0.030991	-0.318073	0.685421	0.378771	0.918369	0	0	0.0552961	-0.142289	0.215047	0.222541	1.5708	0	0
0.22	-2.33267	1.45248	-2.5178	0.752943	-0.293681	0.931112	-0.077176	-0.268368	-0.228759	0.903164	-0.0521086	0	0	0.13399	0.155162	-0.332009	0.120269	-0.050177	0	0	-0.0982612	-0.110929	0.24958	-0.0375408	-0.317442	0.680558	0.378192	0.91775	0	0	0.0518321	-0.145152	0.222373	0.226049	1.5708	0	0
0.23	-2.37399	1.45164	-2.46932	0.750486	-0.283404	0.932655	-0.0534534	-0.280875	-0.223772	0.941235	-0.193753	0	0	0.115385	0.15991	-0.31956	0.116171	-0.0455507	0	0	-0.10259	-0.105249	0.245164	-0.0409253	-0.322024	0.676327	0.379703	0.917875	0	0	0.0509431	-0.142822	0.227466	0.227333	1.5708	0	0
0.24	-2.28889	1.45861	-2.55276	0.75053	-0.275003	0.931705	0.0148732	-0.280998	-0.190464	1.02784	-0.175863	0	0	0.142157	0.15283	-0.319676	0.166468	-0.0134639	0	0	-0.0912222	-0.107557	0.246951	-0.0417056	-0.319675	0.670853	0.379514	0.917655	0	0	0.0526708	-0.147457	0.234293	0.231639	1.5708	0	0
0.25	-2.23569	1.44592	-2.60516	0.749362	-0.26452	0.931862	0.0491097	-0.32047	-0.189718	1.07236	-0.310444	0	0	0.108967	0.179017	-0.310648	0.125437	-0.0210464	0	0	-0.090388	-0.122233	0.247761	-0.0463874	-0.319511	0.664932	0.382586	0.918825	0	0	0.0502575	-0.151256	0.240282	0.237326	1.5708	0	0
0.26	-2.22297	1.44449	-2.619	0.749428	-0.255992	0.932242	0.102069	-0.322537	-0.160924	1.14768	-0.244389	0	0	0.102125	0.181053	-0.308553	0.131444	-0.00914767	0	0	-0.0918581	-0.126035	0.250472	-0.0457166	-0.318664	0.659893	0.384302	0.919627	0	0	0.0534372	-0.153653	0.244103	0.240149	1.5708	0	0
